HIERARCHY
ROOT Hips
{
 OFFSET 0.000000 0.000000 0.000000
 CHANNELS 6 Xposition Yposition Zposition Yrotation Xrotation Zrotation
 JOINT Chest
 {
  OFFSET 0.000000 11.395451 -0.039534
  CHANNELS 3 Yrotation Xrotation Zrotation
  JOINT Chest2
  {
   OFFSET 0.000000 9.398669 0.071813
   CHANNELS 3 Yrotation Xrotation Zrotation
   JOINT Chest3
   {
    OFFSET 0.000000 8.489801 0.000000
    CHANNELS 3 Yrotation Xrotation Zrotation
    JOINT Chest4
    {
     OFFSET 0.000000 8.489801 0.000000
     CHANNELS 3 Yrotation Xrotation Zrotation
     JOINT Neck
     {
      OFFSET 0.000000 12.404889 0.000000
      CHANNELS 3 Yrotation Xrotation Zrotation
      JOINT Head
      {
       OFFSET 0.000000 8.903270 0.092239
       CHANNELS 3 Yrotation Xrotation Zrotation
       End Site
       {
        OFFSET 0.000000 17.592497 0.007158
       }
      }
     }
     JOINT RightCollar
     {
      OFFSET -3.196775 6.966722 0.000000
      CHANNELS 3 Yrotation Xrotation Zrotation
      JOINT RightShoulder
      {
       OFFSET -15.955896 0.000000 0.000000
       CHANNELS 3 Yrotation Xrotation Zrotation
       JOINT RightElbow
       {
        OFFSET -24.792472 0.000000 0.000000
        CHANNELS 3 Yrotation Xrotation Zrotation
        JOINT RightWrist
        {
         OFFSET -20.900115 0.000000 0.025002
         CHANNELS 3 Yrotation Xrotation Zrotation
         End Site
         {
          OFFSET -16.056692 0.000000 0.000000
         }
        }
       }
      }
     }
     JOINT LeftCollar
     {
      OFFSET 3.196775 6.966722 0.000000
      CHANNELS 3 Yrotation Xrotation Zrotation
      JOINT LeftShoulder
      {
       OFFSET 15.955896 0.000000 0.000000
       CHANNELS 3 Yrotation Xrotation Zrotation
       JOINT LeftElbow
       {
        OFFSET 24.792472 0.000000 0.000000
        CHANNELS 3 Yrotation Xrotation Zrotation
        JOINT LeftWrist
        {
         OFFSET 20.900115 0.000000 0.025002
         CHANNELS 3 Yrotation Xrotation Zrotation
         End Site
         {
          OFFSET 16.056692 0.000000 0.000000
         }
        }
       }
      }
     }
    }
   }
  }
 }
 JOINT RightHip
 {
  OFFSET -9.568995 0.193718 0.019767
  CHANNELS 3 Yrotation Xrotation Zrotation
  JOINT RightKnee
  {
   OFFSET 0.000000 -56.649296 0.015402
   CHANNELS 3 Yrotation Xrotation Zrotation
   JOINT RightAnkle
   {
    OFFSET 0.000000 -41.365147 0.021264
    CHANNELS 3 Yrotation Xrotation Zrotation
    JOINT RightToe
    {
     OFFSET 0.000000 -7.465940 17.672538
     CHANNELS 3 Yrotation Xrotation Zrotation
     End Site
     {
      OFFSET 0.000000 -1.736315 7.837145
     }
    }
   }
  }
 }
 JOINT LeftHip
 {
  OFFSET 9.568995 0.193718 0.019767
  CHANNELS 3 Yrotation Xrotation Zrotation
  JOINT LeftKnee
  {
   OFFSET 0.000000 -56.649296 0.015402
   CHANNELS 3 Yrotation Xrotation Zrotation
   JOINT LeftAnkle
   {
    OFFSET 0.000000 -41.365147 0.021264
    CHANNELS 3 Yrotation Xrotation Zrotation
    JOINT LeftToe
    {
     OFFSET 0.000000 -7.465940 17.672538
     CHANNELS 3 Yrotation Xrotation Zrotation
     End Site
     {
      OFFSET 0.000000 -1.736315 7.837145
     }
    }
   }
  }
 }
}
MOTION
Frames: 15
Frame Time: 0.016667
31.554227 106.712279 158.690372 144.471454 -7.310198 -0.551358 -2.608904 4.250492 -0.175996 -1.157079 1.890076 -0.054253 -1.157079 1.890076 -0.054253 -0.867562 1.417665 -0.037107 -0.108670 19.427483 0.026970 -0.207155 -0.106183 0.083493 2.560988 2.702825 10.942521 -0.536913 -11.628099 74.492882 -1.720686 17.203808 -5.330090 1.958847 13.496782 3.429734 2.902548 1.932201 -9.412891 -5.206938 -10.793611 -76.114478 2.331750 9.368820 6.110677 1.150966 3.591131 -7.988794 7.665490 11.448614 1.380913 -1.556130 -0.482659 0.224460 -6.232624 -3.971926 1.834642 0.000000 0.000000 0.000000 -1.453283 10.658542 -0.415630 0.376783 3.367494 0.182579 5.587148 -7.913413 -1.081593 0.000000 0.000000 0.000000
31.555397 106.697701 158.659674 144.567634 -7.221875 -0.530203 -2.578279 4.213373 -0.155347 -1.143691 1.873455 -0.045570 -1.143690 1.873456 -0.045570 -0.857551 1.405184 -0.030667 -0.124752 19.413219 0.017768 -0.233672 -0.132673 0.071756 2.547398 2.676539 10.832443 -0.501366 -11.697855 74.506061 -1.743730 17.177857 -5.335499 1.942954 13.494372 3.460008 2.848246 1.898181 -9.386189 -5.164904 -10.805892 -76.166050 2.216260 9.398371 6.057035 1.139745 3.585778 -8.002202 7.722938 11.375747 1.382262 -1.768081 -0.466135 0.211382 -6.187445 -4.026610 1.839527 0.000000 0.000000 -0.000000 -1.485107 10.572926 -0.461613 0.353438 3.350517 0.227987 5.546431 -7.908746 -1.099247 0.000000 0.000000 0.000000
31.556568 106.683124 158.628977 144.663827 -7.133588 -0.508903 -2.547626 4.176224 -0.134826 -1.130289 1.856821 -0.036940 -1.130288 1.856822 -0.036940 -0.847529 1.392691 -0.024267 -0.140835 19.398967 0.008528 -0.260188 -0.159130 0.059955 2.533867 2.650545 10.722298 -0.465866 -11.767699 74.518997 -1.766788 17.151922 -5.340880 1.927148 13.491939 3.490340 2.793958 1.864061 -9.359551 -5.122806 -10.817997 -76.217633 2.100798 9.427712 6.003044 1.128557 3.580395 -8.015621 7.780387 11.302921 1.383328 -1.980043 -0.449676 0.198339 -6.142269 -4.081295 1.844396 -0.000000 0.000000 0.000000 -1.516895 10.487348 -0.507645 0.330074 3.333517 0.273381 5.505717 -7.904089 -1.116913 0.000000 0.000000 0.000000
31.561705 106.670512 158.599238 144.739752 -7.051523 -0.487729 -2.516484 4.140498 -0.117436 -1.116637 1.840839 -0.029692 -1.116637 1.840839 -0.029692 -0.837316 1.380689 -0.018903 -0.158036 19.388108 0.000017 -0.288983 -0.179279 0.049836 2.519346 2.626054 10.620817 -0.424245 -11.837600 74.535070 -1.779851 17.127448 -5.343629 1.911911 13.489855 3.522269 2.742072 1.832422 -9.336111 -5.079612 -10.826318 -76.262701 2.015114 9.457272 5.956794 1.119903 3.576397 -8.031705 7.838144 11.238333 1.381496 -2.168438 -0.436256 0.185717 -6.100469 -4.134044 1.849307 -0.000000 0.000000 0.000000 -1.544035 10.412990 -0.549722 0.314951 3.318275 0.313029 5.472397 -7.902998 -1.133948 0.000000 0.000000 0.000000
31.572480 106.661073 158.571086 144.785882 -6.977086 -0.466465 -2.482862 4.105711 -0.104490 -1.101840 1.825301 -0.024430 -1.101841 1.825301 -0.024430 -0.826238 1.369025 -0.015029 -0.176762 19.382854 -0.007123 -0.320984 -0.189021 0.042693 2.502998 2.603268 10.531327 -0.374718 -11.907062 74.557642 -1.782239 17.105538 -5.346379 1.896433 13.489992 3.558371 2.694151 1.804971 -9.317302 -5.034288 -10.829774 -76.296895 1.968727 9.491394 5.918381 1.114286 3.573257 -8.053295 7.901404 11.184881 1.374970 -2.328706 -0.427852 0.174121 -6.062680 -4.183778 1.855410 0.000000 0.000000 0.000000 -1.564728 10.353958 -0.586458 0.312588 3.305807 0.344436 5.449729 -7.907028 -1.150351 0.000000 0.000000 0.000000
31.587222 106.653601 158.543894 144.811750 -6.908846 -0.445445 -2.448767 4.072379 -0.094622 -1.086802 1.810428 -0.020525 -1.086802 1.810428 -0.020525 -0.814973 1.357863 -0.012172 -0.196607 19.380979 -0.013501 -0.355264 -0.192481 0.037291 2.485650 2.581811 10.450536 -0.319092 -11.976617 74.583432 -1.774637 17.085074 -5.346590 1.881513 13.490441 3.596058 2.648623 1.780062 -9.301657 -4.987921 -10.829545 -76.324535 1.952097 9.525924 5.888018 1.111199 3.571525 -8.077539 7.964966 11.139676 1.365685 -2.465401 -0.422443 0.162958 -6.028273 -4.231580 1.861563 0.000000 0.000000 0.000000 -1.580800 10.306110 -0.619181 0.318489 3.295112 0.370104 5.434452 -7.914617 -1.166109 -0.000000 -0.000000 0.000000
31.604890 106.646436 158.516741 144.825652 -6.848727 -0.425813 -2.419738 4.043473 -0.086776 -1.073993 1.797535 -0.017447 -1.073993 1.797535 -0.017447 -0.805377 1.348187 -0.009924 -0.217482 19.379211 -0.020212 -0.391320 -0.195738 0.031603 2.468740 2.561939 10.377273 -0.256582 -12.047753 74.605883 -1.749067 17.064122 -5.333968 1.870000 13.485899 3.629080 2.603176 1.755277 -9.287941 -4.942692 -10.825445 -76.352099 1.966387 9.548644 5.874129 1.111624 3.574252 -8.098549 8.013556 11.102204 1.356721 -2.568611 -0.417003 0.150798 -5.998721 -4.278754 1.864393 -0.000000 0.000000 0.000000 -1.593085 10.268248 -0.647947 0.327401 3.284944 0.391804 5.424170 -7.924644 -1.180553 0.000000 0.000000 0.000000
31.625581 106.638959 158.489208 144.828910 -6.798020 -0.407524 -2.397406 4.020432 -0.080858 -1.064138 1.787259 -0.015132 -1.064138 1.787259 -0.015132 -0.797995 1.340475 -0.008235 -0.241133 19.376470 -0.028169 -0.432067 -0.200798 0.024518 2.452875 2.543767 10.311509 -0.185005 -12.121151 74.622448 -1.698366 17.038777 -5.301945 1.863930 13.472314 3.654494 2.556821 1.729054 -9.276193 -4.898793 -10.816432 -76.382761 2.014572 9.554440 5.882581 1.116600 3.584069 -8.112616 8.035039 11.073452 1.347548 -2.624395 -0.411020 0.137267 -5.976320 -4.326312 1.861195 0.000000 -0.000000 -0.000000 -1.600557 10.240996 -0.672560 0.337570 3.274815 0.409193 5.417772 -7.937212 -1.192690 0.000000 0.000000 0.000000
31.649199 106.631790 158.461714 144.820195 -6.755423 -0.390660 -2.380149 4.001817 -0.076902 -1.056517 1.778963 -0.013620 -1.056517 1.778963 -0.013620 -0.792284 1.334251 -0.007138 -0.265812 19.373829 -0.036454 -0.474588 -0.205674 0.017158 2.437421 2.527076 10.253302 -0.106524 -12.196084 74.635731 -1.629691 17.012803 -5.257194 1.861182 13.453737 3.675147 2.510549 1.702982 -9.266336 -4.856050 -10.803596 -76.413352 2.093663 9.548421 5.907566 1.125057 3.598373 -8.123422 8.041560 11.052384 1.338837 -2.646695 -0.404995 0.122698 -5.958767 -4.373240 1.854677 0.000000 -0.000000 -0.000000 -1.604254 10.223724 -0.693219 0.350751 3.265222 0.422612 5.416371 -7.952215 -1.203515 0.000000 0.000000 0.000000
31.674407 106.625130 158.434592 144.803816 -6.718980 -0.376533 -2.368622 3.986280 -0.074047 -1.051429 1.772042 -0.012532 -1.051429 1.772042 -0.012532 -0.788472 1.329058 -0.006349 -0.286179 19.371244 -0.043428 -0.509638 -0.210448 0.010837 2.421963 2.511640 10.201601 -0.026854 -12.271890 74.646901 -1.556514 16.995777 -5.209204 1.858373 13.437037 3.693494 2.465018 1.679357 -9.256955 -4.816077 -10.789943 -76.440851 2.195885 9.533686 5.939943 1.134801 3.612364 -8.136170 8.054261 11.035454 1.335446 -2.667421 -0.397446 0.106717 -5.940627 -4.417796 1.849582 0.000000 -0.000000 0.000000 -1.608104 10.213361 -0.710575 0.366949 3.256400 0.434860 5.420907 -7.968211 -1.215340 0.000000 0.000000 0.000000
31.701507 106.619133 158.408061 144.779228 -6.689997 -0.366322 -2.363331 3.974353 -0.072245 -1.049100 1.766731 -0.011838 -1.049100 1.766731 -0.011838 -0.786728 1.325073 -0.005844 -0.298939 19.368856 -0.048407 -0.531406 -0.214867 0.005764 2.405806 2.498361 10.157144 0.056043 -12.351610 74.655723 -1.482745 16.995055 -5.160256 1.854515 13.425520 3.709448 2.419657 1.660392 -9.247610 -4.779622 -10.776903 -76.463376 2.323132 9.507121 5.976704 1.144538 3.622626 -8.152012 8.084810 11.022583 1.341980 -2.699900 -0.386824 0.087286 -5.920501 -4.459078 1.848180 0.000000 0.000000 -0.000000 -1.613891 10.211278 -0.723921 0.385993 3.248330 0.446623 5.434715 -7.984906 -1.229689 -0.000000 0.000000 -0.000000
31.730197 106.613644 158.381903 144.746968 -6.667165 -0.358854 -2.363773 3.965499 -0.071522 -1.049307 1.762792 -0.011558 -1.049307 1.762792 -0.011558 -0.786885 1.322119 -0.005641 -0.307386 19.366527 -0.052073 -0.545701 -0.219184 0.001733 2.389632 2.486288 10.119209 0.140135 -12.432169 74.662516 -1.404434 17.003249 -5.107886 1.850596 13.415900 3.723122 2.375034 1.643892 -9.238725 -4.745938 -10.763085 -76.482838 2.473488 9.471738 6.020613 1.155550 3.632610 -8.169800 8.121536 11.013849 1.353825 -2.730810 -0.374685 0.066440 -5.899792 -4.497990 1.848199 0.000000 0.000000 0.000000 -1.619833 10.216101 -0.733971 0.408056 3.241035 0.457213 5.454462 -8.002589 -1.245047 0.000000 -0.000000 -0.000000
31.758244 106.608396 158.355795 144.712972 -6.644606 -0.351910 -2.369087 3.956764 -0.071143 -1.051674 1.758909 -0.011389 -1.051674 1.758909 -0.011389 -0.788661 1.319206 -0.005514 -0.316061 19.363800 -0.054836 -0.560701 -0.224236 -0.000572 2.375094 2.472435 10.084550 0.213597 -12.503726 74.669312 -1.323284 17.007905 -5.054442 1.846210 13.405149 3.737306 2.333511 1.625533 -9.230187 -4.714391 -10.747245 -76.501893 2.633495 9.439871 6.071251 1.169503 3.647834 -8.191290 8.150574 11.005967 1.361975 -2.752079 -0.364206 0.049935 -5.877267 -4.535494 1.847557 0.000000 0.000000 0.000000 -1.624505 10.220645 -0.743500 0.433654 3.234814 0.467358 5.471074 -8.020706 -1.259171 -0.000000 -0.000000 -0.000000
31.784978 106.603282 158.329220 144.678379 -6.619337 -0.344581 -2.380076 3.946021 -0.071050 -1.056562 1.754135 -0.011309 -1.056562 1.754136 -0.011309 -0.792327 1.315626 -0.005448 -0.326496 19.361432 -0.056854 -0.579150 -0.228612 -0.000962 2.362651 2.455130 10.052161 0.273864 -12.562070 74.676967 -1.237003 17.001348 -4.999985 1.840776 13.391874 3.754518 2.295898 1.603320 -9.221993 -4.684565 -10.727146 -76.522436 2.806334 9.417312 6.132359 1.188622 3.673325 -8.219593 8.166401 10.997392 1.362824 -2.755001 -0.357150 0.039535 -5.856503 -4.572131 1.845701 0.000000 0.000000 0.000000 -1.628971 10.221565 -0.754158 0.465867 3.230195 0.477598 5.480872 -8.039649 -1.270937 0.000000 -0.000000 0.000000
31.811069 106.598409 158.302696 144.642051 -6.594340 -0.337779 -2.395936 3.935395 -0.071289 -1.063609 1.749416 -0.011335 -1.063609 1.749416 -0.011335 -0.797612 1.312087 -0.005455 -0.337158 19.358665 -0.057966 -0.598303 -0.233724 0.000379 2.351850 2.436036 10.023066 0.323509 -12.611378 74.684705 -1.147953 16.991260 -4.944441 1.834846 13.377465 3.772220 2.261387 1.579251 -9.214128 -4.656879 -10.705040 -76.542590 2.988875 9.398156 6.200103 1.210620 3.704124 -8.251554 8.174540 10.989664 1.359992 -2.748272 -0.351735 0.033470 -5.833919 -4.607359 1.843179 0.000000 0.000000 0.000000 -1.632167 10.222206 -0.764295 0.501615 3.226646 0.487386 5.487534 -8.059029 -1.281466 0.000000 0.000000 0.000000
